<svg width="120" height="120" xmlns="http://www.w3.org/2000/svg" id="Layer_1" data-name="Layer 1" viewBox="28.79 68.23 292.41 219.86"><defs><style>.cls-1,.cls-2{fill:#bd8334;}.cls-1{stroke:#000;}.cls-1,.cls-2,.cls-3{stroke-miterlimit:10;stroke-width:0.4px;}.cls-2,.cls-3{font-size:38.78px;font-family:Marcellus-Regular, Marcellus;}.cls-2{stroke:#1d1d1b;}.cls-3{stroke:#bd8334;}.cls-4{letter-spacing:-0.03em;}</style></defs><path class="cls-1" d="M319.56,161.35l-61.47-39.77c0-.08,0-.15,0-.23V80.56A3.15,3.15,0,0,0,255,77.41H237.9a3.15,3.15,0,0,0-3.15,3.15v25.92l-58-37.54a3.12,3.12,0,0,0-3.42,0L30.44,161.35a3.15,3.15,0,0,0,1.71,5.8H87a3.15,3.15,0,0,0,0-6.3H42.83L175,75.34l132.17,85.51H270.34a3.15,3.15,0,1,0,0,6.3h47.51a3.15,3.15,0,0,0,1.71-5.8ZM241.05,83.72H251.8v33.8l-10.75-7Z"/><path class="cls-1" d="M119.8,161.65h-8.3a1.48,1.48,0,0,0,0,3h8.3A1.48,1.48,0,0,0,119.8,161.65Z"/><path class="cls-1" d="M128.07,134.57l-7.42-4.12c-1.67-.93-3.16,1.62-1.49,2.55l7.42,4.12C128.25,138.05,129.74,135.49,128.07,134.57Z"/><path class="cls-1" d="M144.18,108a1.48,1.48,0,0,0-2.55,1.49l4,7.16a1.48,1.48,0,0,0,2.55-1.49Z"/><path class="cls-1" d="M175.79,108.64v-8.33a1.48,1.48,0,0,0-2.95,0v8.33A1.48,1.48,0,0,0,175.79,108.64Z"/><path class="cls-1" d="M204.45,108l-4,7.39c-.9,1.68,1.65,3.17,2.55,1.49l4-7.39C207.9,107.79,205.35,106.3,204.45,108Z"/><path class="cls-1" d="M228,130.45l-7.31,4.35a1.48,1.48,0,0,0,1.49,2.55l7.31-4.35A1.48,1.48,0,0,0,228,130.45Z"/><path class="cls-1" d="M237.13,161.65h-8.45a1.48,1.48,0,0,0,0,3h8.45A1.48,1.48,0,0,0,237.13,161.65Z"/><path class="cls-1" d="M175.16,159.41V130.09a.74.74,0,0,0-1.48,0v29.35a4.35,4.35,0,0,0-.61.2l-20.13-34.82-1.75-3a.74.74,0,0,0-1.27.74L171.8,160.4l0,.06a3.66,3.66,0,0,0-1.08,2.59,3.73,3.73,0,0,0,3.69,3.7h.21a3.69,3.69,0,0,0,.5-7.34Z"/><text class="cls-2" transform="translate(87.42 204.69)">PURETIME</text><text class="cls-3" transform="translate(86.43 242.06)">PROPE<tspan class="cls-4" x="112.92" y="0">R</tspan><tspan x="134.68" y="0">TY</tspan></text><text class="cls-3" transform="translate(58.78 276.89)">PURCHASING</text></svg>