<svg id="Layer_1" data-name="Layer 1" xmlns="http://www.w3.org/2000/svg" viewBox="0 0 500 500"><defs><style>.cls-1,.cls-2,.cls-3{fill:#bd8334;stroke:#000;}.cls-1,.cls-2,.cls-3,.cls-4,.cls-6{stroke-miterlimit:10;}.cls-1,.cls-2{stroke-width:0.4px;}.cls-1{fill-rule:evenodd;}.cls-3,.cls-4{font-size:38.78px;stroke-width:0.4px;font-family:Marcellus-Regular, Marcellus;}.cls-4,.cls-6{stroke:#bd8334;}.cls-5{letter-spacing:-0.03em;}.cls-6{fill:none;stroke-width:4px;}</style></defs><path class="cls-1" d="M393.31,232.26l-61.47-39.77a1.6,1.6,0,0,0,0-.23V151.47a3.16,3.16,0,0,0-3.16-3.15h-17a3.15,3.15,0,0,0-3.16,3.15v25.92l-58-37.54a3.14,3.14,0,0,0-3.43,0L104.2,232.26a3.15,3.15,0,0,0,1.71,5.8H160.7a3.15,3.15,0,1,0,0-6.3H116.59l132.17-85.51,132.17,85.51H344.1a3.15,3.15,0,1,0,0,6.3h47.5a3.15,3.15,0,0,0,1.71-5.8Zm-78.5-77.63h10.75v33.8l-10.75-7Z"/><path class="cls-2" d="M193.56,232.56h-8.3a1.48,1.48,0,0,0,0,3h8.3A1.48,1.48,0,0,0,193.56,232.56Z"/><path class="cls-2" d="M201.83,205.48l-7.42-4.12c-1.67-.93-3.16,1.62-1.49,2.55l7.41,4.12C202,209,203.49,206.4,201.83,205.48Z"/><path class="cls-2" d="M217.94,178.88a1.48,1.48,0,0,0-2.55,1.5l4,7.15A1.48,1.48,0,0,0,222,186Z"/><path class="cls-2" d="M249.55,179.55v-8.32a1.48,1.48,0,0,0-3,0v8.32A1.48,1.48,0,0,0,249.55,179.55Z"/><path class="cls-2" d="M278.2,178.88l-4,7.39c-.91,1.68,1.64,3.17,2.55,1.49l4-7.38C281.66,178.7,279.11,177.21,278.2,178.88Z"/><path class="cls-2" d="M301.73,201.36l-7.31,4.35a1.48,1.48,0,0,0,1.49,2.56l7.32-4.36A1.48,1.48,0,0,0,301.73,201.36Z"/><path class="cls-2" d="M310.89,232.56h-8.45a1.48,1.48,0,0,0,0,3h8.45A1.48,1.48,0,0,0,310.89,232.56Z"/><path class="cls-2" d="M248.92,230.32V201a.74.74,0,0,0-1.48,0v29.36a3.41,3.41,0,0,0-.62.19L226.7,195.73l-1.75-3a.74.74,0,0,0-1.28.74l21.88,37.87,0,.07a3.68,3.68,0,0,0-1.08,2.58,3.73,3.73,0,0,0,3.7,3.7h.2a3.69,3.69,0,0,0,.51-7.34Z"/><text class="cls-3" transform="translate(161.18 275.6)">PURETIME</text><text class="cls-4" transform="translate(160.19 312.97)">PROPE<tspan class="cls-5" x="112.92" y="0">R</tspan><tspan x="134.68" y="0">TY</tspan></text><text class="cls-4" transform="translate(132.53 347.81)">PURCHASING</text><circle class="cls-6" cx="249.55" cy="246.72" r="157.97"/></svg>