<svg xmlns="http://www.w3.org/2000/svg" id="Layer_1" data-name="Layer 1" viewBox="0 0 292.4 209.45"><defs><style>.cls-1,.cls-2{fill:#bd8334;}.cls-1{stroke:#000;stroke-width:0.4px;}.cls-1,.cls-2,.cls-3{stroke-miterlimit:10;}.cls-2{stroke:#1d1d1b;}.cls-2,.cls-3{stroke-width:0.4px;}.cls-3{stroke:#bd8334;}</style></defs><path class="cls-1" d="M319.5581,161.35l-61.472-39.7687c.0056-.0773.0232-.1512.0232-.23V80.5631a3.1523,3.1523,0,0,0-3.1524-3.1525H237.9a3.1529,3.1529,0,0,0-3.1531,3.1525v25.92L176.7123,68.9379a3.147,3.147,0,0,0-3.4235,0L30.4407,161.35a3.1528,3.1528,0,0,0,1.713,5.8H86.9488a3.1525,3.1525,0,1,0,0-6.305H42.8294L175,75.338l132.17,85.5078H270.34a3.1525,3.1525,0,0,0,0,6.305h47.5075a3.1528,3.1528,0,0,0,1.7107-5.8ZM241.0524,83.7159h10.7521v33.802l-10.7521-6.9559Z" transform="translate(-28.8 -68.2316)"/><path class="cls-1" d="M119.8021,161.6524h-8.3008a1.4781,1.4781,0,0,0,0,2.9546h8.3008A1.4781,1.4781,0,0,0,119.8021,161.6524Z" transform="translate(-28.8 -68.2316)"/><path class="cls-1" d="M128.07,134.5679l-7.4189-4.1223c-1.6669-.9262-3.1567,1.6259-1.4912,2.5513l7.4189,4.1222C128.2454,138.0454,129.7351,135.4932,128.07,134.5679Z" transform="translate(-28.8 -68.2316)"/><path class="cls-1" d="M144.1841,107.9729a1.4783,1.4783,0,0,0-2.5512,1.4912l4.0392,7.1533a1.4783,1.4783,0,0,0,2.5512-1.4912Z" transform="translate(-28.8 -68.2316)"/><path class="cls-1" d="M175.7939,108.6356v-8.321a1.4781,1.4781,0,0,0-2.9545,0v8.321A1.4781,1.4781,0,0,0,175.7939,108.6356Z" transform="translate(-28.8 -68.2316)"/><path class="cls-1" d="M204.447,107.9729l-3.9869,7.3888c-.9047,1.6764,1.6463,3.1681,2.5513,1.4911l3.9869-7.3887C207.903,107.7877,205.352,106.2959,204.447,107.9729Z" transform="translate(-28.8 -68.2316)"/><path class="cls-1" d="M227.9784,130.4451l-7.3126,4.3576a1.4784,1.4784,0,0,0,1.4912,2.5513l7.3125-4.3577A1.4783,1.4783,0,0,0,227.9784,130.4451Z" transform="translate(-28.8 -68.2316)"/><path class="cls-1" d="M237.13,161.6524h-8.4495a1.4781,1.4781,0,0,0,0,2.9546h8.45A1.4781,1.4781,0,0,0,237.13,161.6524Z" transform="translate(-28.8 -68.2316)"/><path class="cls-1" d="M175.1616,159.4119V130.0858a.7391.7391,0,0,0-1.4773,0v29.3589a3.627,3.627,0,0,0-.6166.1948l-20.125-34.8229-1.7506-3.029a.7391.7391,0,0,0-1.2755.7454l21.8819,37.8628.0391.0677a3.6806,3.6806,0,0,0-1.0816,2.5894,3.7277,3.7277,0,0,0,3.6933,3.6932h.2071a3.6839,3.6839,0,0,0,.5052-7.3342Z" transform="translate(-28.8 -68.2316)"/><path class="cls-2" d="M90.1279,177.5371q.3787.0381.7954.0762.36.0381.8047.0469t.9185.01a14.8784,14.8784,0,0,0,1.9975-.18,23.4007,23.4007,0,0,1,3.21-.1806,10.2842,10.2842,0,0,1,3.3613.53,7.6937,7.6937,0,0,1,2.68,1.5528,7.0963,7.0963,0,0,1,1.77,2.49,8.3526,8.3526,0,0,1,.6343,3.3428,8.9554,8.9554,0,0,1-1.0034,4.3555,8.3573,8.3573,0,0,1-2.689,2.9726,10.1751,10.1751,0,0,1-3.8823,1.544,13.8477,13.8477,0,0,1-4.6016.0468v3.1436q0,1.61.0474,2.8125t.1138,2.0732q.0658.8716.17,1.458a9.8393,9.8393,0,0,0,.2178.9844v.0762h-4.545v-.0762q.1135-.3969.2178-.9844.104-.5859.18-1.458.0754-.87.1138-2.0732t.038-2.8125V184.96q0-1.6085-.038-2.8116t-.1138-2.083q-.0755-.88-.18-1.4677t-.2178-.9844Zm3.9956,15.1309a9.5434,9.5434,0,0,0,3.399.0654,5.7091,5.7091,0,0,0,2.6513-1.1738,5.8688,5.8688,0,0,0,1.7232-2.4336,10.0939,10.0939,0,0,0,.6157-3.749,11.2642,11.2642,0,0,0-.3223-2.793,6.2874,6.2874,0,0,0-.956-2.14,4.3367,4.3367,0,0,0-1.6-1.3642,4.9888,4.9888,0,0,0-2.2534-.4824,13.302,13.302,0,0,0-1.42.0664c-.4042.0439-.7451.0918-1.0224.1416a5.7491,5.7491,0,0,0-.8145.2089Z" transform="translate(-28.8 -68.2316)"/><path class="cls-2" d="M129.4219,184.96q0-1.6085-.0381-2.8116t-.1138-2.083q-.0755-.88-.17-1.4677a8.6593,8.6593,0,0,0-.208-.9844v-.0762h3.3706v.0762a10.0106,10.0106,0,0,0-.2178.9844q-.1039.5874-.17,1.4677t-.1137,2.083q-.0477,1.2027-.0474,2.8116v10.2265a12.2845,12.2845,0,0,1-.7764,4.62,8.23,8.23,0,0,1-2.1587,3.1338,8.4824,8.4824,0,0,1-3.3139,1.78,15.1652,15.1652,0,0,1-4.2227.5586,16.4527,16.4527,0,0,1-4.2705-.53,9.21,9.21,0,0,1-3.4463-1.7138,8.0259,8.0259,0,0,1-2.3008-3.0674,11.3266,11.3266,0,0,1-.8335-4.5918V184.96q0-1.6085-.0376-2.8116t-.1137-2.083q-.0762-.88-.18-1.4677t-.2178-.9844v-.0762h4.5444v.0762a10.0137,10.0137,0,0,0-.2177.9844q-.1041.5874-.18,1.4677t-.1138,2.083q-.0381,1.2027-.0376,2.8116v10.624a8.9525,8.9525,0,0,0,.6719,3.7207,6.1392,6.1392,0,0,0,1.771,2.3291,6.4679,6.4679,0,0,0,2.5,1.2031,12.1655,12.1655,0,0,0,5.7187,0,6.3931,6.3931,0,0,0,2.49-1.2031,6.1834,6.1834,0,0,0,1.7612-2.3291,8.96,8.96,0,0,0,.6724-3.7207Z" transform="translate(-28.8 -68.2316)"/><path class="cls-2" d="M141.5225,197.2881q0,1.61.0473,2.8125t.1138,2.0732q.0658.8716.17,1.458a9.8675,9.8675,0,0,0,.2178.9844v.0762h-4.5449v-.0762q.1134-.3969.2177-.9844.1041-.5859.17-1.458.066-.87.1138-2.0644.047-1.1923.0474-2.8213V184.96q0-1.6085-.0474-2.8116t-.1138-2.0742q-.0666-.87-.17-1.4668a9.9827,9.9827,0,0,0-.2177-.9941v-.0762l.7954.0762q.36.0381.8047.0469t.9184.01a14.881,14.881,0,0,0,1.9976-.18,23.3981,23.3981,0,0,1,3.21-.1806,11.0109,11.0109,0,0,1,3.3614.4922,7.8966,7.8966,0,0,1,2.68,1.4394,6.566,6.566,0,0,1,1.7706,2.32,7.343,7.343,0,0,1,.6342,3.1143,8.7465,8.7465,0,0,1-.35,2.5283,7.8147,7.8147,0,0,1-.9848,2.1113,7.67,7.67,0,0,1-1.5244,1.6758,8.8036,8.8036,0,0,1-1.9883,1.2217l6.6465,9.3359q.4922.7.9184,1.2119a10.4744,10.4744,0,0,0,.8145.8809,5.3806,5.3806,0,0,0,.748.6055,3.3265,3.3265,0,0,0,.7383.3691v.0762h-5.4727a3.3573,3.3573,0,0,0-.3691-.9561,10.4613,10.4613,0,0,0-.729-1.1836l-6.7036-9.4492q-.4357.0381-.8711.0654-.4358.0294-.89.0293-.53,0-1.07-.038a10.8327,10.8327,0,0,1-1.0888-.1329Zm0-5.7383a7.9828,7.9828,0,0,0,1.0415.1611q.53.0484,1.0224.0479a7.5778,7.5778,0,0,0,2.5943-.4258,5.1016,5.1016,0,0,0,1.998-1.2978,5.9771,5.9771,0,0,0,1.2783-2.168,9.1973,9.1973,0,0,0,.4546-3.0391,9.5842,9.5842,0,0,0-.3222-2.5761,5.5329,5.5329,0,0,0-.9561-1.96,4.2969,4.2969,0,0,0-1.6-1.249,5.3352,5.3352,0,0,0-2.2534-.4453,12.883,12.883,0,0,0-2.0835.1328,6.5578,6.5578,0,0,0-1.1738.2841Z" transform="translate(-28.8 -68.2316)"/><path class="cls-2" d="M165.146,177.5186q2.3387-.019,4.29-.0479t3.3326-.085a15.262,15.262,0,0,0,1.875-.1513l-.9283,2.5185a13.6264,13.6264,0,0,0-1.458-.3027q-.72-.1143-1.7514-.2178t-2.3765-.1045q-.4548,0-1.0889.0283t-1.2216.0665q-.6819.0379-1.3824.0752v10.34q1.95-.019,3.5225-.1133t2.67-.1894q1.2876-.1143,2.2725-.2657l-.5874,2.7461q-1.3067-.17-2.67-.3222-1.1742-.1318-2.5562-.2364t-2.6514-.1045v11.8741q2.2339,0,4.1094-.1895t3.2759-.4355q1.6281-.2652,2.9731-.625l-.5493,3.0674q-.227-.019-.6816-.0381t-1.0132-.0371q-.5589-.019-1.1738-.0293t-1.1646-.0186q-.55-.01-.9756-.0186c-.2837-.0068-.4892-.01-.6152-.01H160.44v-.0762q.1135-.3969.2178-.9844.1039-.5859.18-1.458.0755-.87.1138-2.0732t.038-2.8125V184.96q0-1.6085-.038-2.8116t-.1138-2.083q-.0754-.88-.18-1.4677t-.2178-.9844v-.0762Q162.8077,177.5371,165.146,177.5186Z" transform="translate(-28.8 -68.2316)"/><path class="cls-2" d="M186.5918,179.2031a36.9141,36.9141,0,0,0-4.0332.1992q-1.7988.1994-3.1055.4258-1.5146.2842-2.708.625l.5488-3.0674q.2271.019.6817.0381c.3037.0127.6406.0254,1.0137.0371s.7636.0225,1.1738.0293.7988.0127,1.165.0186.69.0127.9746.0185.4893.01.6162.01h10.8125c.126,0,.3311-.0029.6153-.01s.6094-.0117.9756-.0185.7539-.0127,1.164-.0186.8018-.0166,1.1748-.0293.71-.0244,1.0127-.0371.53-.0254.6817-.0381l.5488,3.0674q-1.2114-.34-2.7266-.625-1.3066-.227-3.1054-.4258a36.9168,36.9168,0,0,0-4.0332-.1992v18.085q0,1.61.0468,2.8125t.1133,2.0732q.0674.8716.1709,1.458a9.8675,9.8675,0,0,0,.2178.9844v.0762h-4.5264v-.0762a8.6366,8.6366,0,0,0,.209-.9844q.0938-.5859.17-1.458.0762-.87.1143-2.0732t.0371-2.8125Z" transform="translate(-28.8 -68.2316)"/><path class="cls-2" d="M202.7822,204.6162a8.6366,8.6366,0,0,0,.209-.9844q.0938-.5859.17-1.458.0762-.87.1143-2.0732t.0371-2.8125V184.96q0-1.6085-.0371-2.8116t-.1143-2.083q-.0761-.88-.17-1.4677a8.6366,8.6366,0,0,0-.209-.9844v-.0762h4.5264v.0762a9.8675,9.8675,0,0,0-.2178.9844q-.1039.5874-.1709,1.4677t-.1133,2.083q-.0468,1.2027-.0468,2.8116v12.3281q0,1.61.0468,2.8125t.1133,2.0732q.0673.8716.1709,1.458a9.8675,9.8675,0,0,0,.2178.9844v.0762h-4.5264Z" transform="translate(-28.8 -68.2316)"/><path class="cls-2" d="M211.55,204.6162a5.8043,5.8043,0,0,0,.4736-.8994,6.322,6.322,0,0,0,.417-1.5049q.2081-1.3257.4639-2.9824t.53-3.4756q.2739-1.8178.5488-3.7207t.53-3.749q.2549-1.8473.4922-3.5606t.4257-3.1338q.189-1.4208.3125-2.4716t.1807-1.5811h2.4043L230.24,199.8066l11.8164-22.2695h1.8l3.1055,22.4971q.1318,1.06.2842,1.8174c.1006.5058.2012.9375.3027,1.2978a8.5753,8.5753,0,0,0,.293.89,4.5,4.5,0,0,0,.2754.5771v.0762h-4.7725v-.0762a3.0927,3.0927,0,0,0,.18-.6816,6.5207,6.5207,0,0,0,.085-1.1358c0-.164-.0059-.331-.0186-.5019s-.0312-.3565-.0566-.5586l-2.4053-18.1416-11.1728,21.0195-1.3067-.1514-11.248-21.0576q-.6636,4.4883-1.1553,8.2949-.2081,1.629-.416,3.2471-.21,1.62-.37,3.02-.1613,1.4019-.2549,2.4717-.0952,1.0694-.0947,1.5811c0,.4287.0117.8076.0371,1.1357s.0507.6064.0761.834q.0571.3969.1133.7H211.55Z" transform="translate(-28.8 -68.2316)"/><path class="cls-2" d="M257.084,177.5186q2.3379-.019,4.289-.0479t3.3331-.085a15.24,15.24,0,0,0,1.874-.1513l-.9278,2.5185a13.6,13.6,0,0,0-1.458-.3027q-.7192-.1143-1.7519-.2178t-2.376-.1045q-.454,0-1.0889.0283t-1.2216.0665q-.6812.0379-1.3829.0752v10.34q1.9512-.019,3.5225-.1133t2.67-.1894q1.2876-.1143,2.2725-.2657l-.5869,2.7461q-1.3066-.17-2.67-.3222-1.1748-.1318-2.5567-.2364t-2.6514-.1045v11.8741a41.1309,41.1309,0,0,0,4.1094-.1895q1.875-.189,3.2764-.4355,1.6289-.2652,2.9726-.625l-.5488,3.0674q-.2271-.019-.6816-.0381t-1.0127-.0371q-.56-.019-1.1748-.0293t-1.1641-.0186q-.5493-.01-.9756-.0186-.4263-.01-.6152-.01h-8.1807v-.0762a9.8393,9.8393,0,0,0,.2178-.9844q.1039-.5859.18-1.458.0762-.87.1142-2.0732t.0372-2.8125V184.96q0-1.6085-.0372-2.8116-.0394-1.2026-.1142-2.083t-.18-1.4677a9.8393,9.8393,0,0,0-.2178-.9844v-.0762Q254.7452,177.5371,257.084,177.5186Z" transform="translate(-28.8 -68.2316)"/><path class="cls-3" d="M89.14,214.9062q.3787.0381.7955.0762.36.0381.8046.0469t.9185.01a14.8977,14.8977,0,0,0,1.9976-.18,23.396,23.396,0,0,1,3.21-.1807,10.2848,10.2848,0,0,1,3.3614.53,7.693,7.693,0,0,1,2.68,1.5527,7.0954,7.0954,0,0,1,1.77,2.49,8.3521,8.3521,0,0,1,.6343,3.3427,8.954,8.954,0,0,1-1.0034,4.3555,8.3585,8.3585,0,0,1-2.689,2.9727,10.175,10.175,0,0,1-3.8823,1.5439,13.847,13.847,0,0,1-4.6015.0469v3.1435q0,1.61.0473,2.8125t.1138,2.0733q.0658.8715.17,1.458a9.8457,9.8457,0,0,0,.2178.9844v.0761H89.14v-.0761q.1136-.3971.2178-.9844t.18-1.458q.0755-.87.1138-2.0733t.0381-2.8125V222.3291q0-1.6085-.0381-2.8115t-.1138-2.083q-.0754-.88-.18-1.4678t-.2178-.9844Zm3.9957,15.1309a9.5406,9.5406,0,0,0,3.3989.0654,5.7091,5.7091,0,0,0,2.6513-1.1738,5.8682,5.8682,0,0,0,1.7232-2.4336,10.0932,10.0932,0,0,0,.6157-3.749,11.2648,11.2648,0,0,0-.3223-2.793,6.2878,6.2878,0,0,0-.956-2.14,4.3363,4.3363,0,0,0-1.6-1.3643,4.9885,4.9885,0,0,0-2.2534-.4824,13.325,13.325,0,0,0-1.42.0664c-.4043.0439-.7451.0918-1.0225.1416a5.7423,5.7423,0,0,0-.8144.209Z" transform="translate(-28.8 -68.2316)"/><path class="cls-3" d="M113,234.6572q0,1.61.0474,2.8125t.1137,2.0733q.066.8715.17,1.458a9.8739,9.8739,0,0,0,.2178.9844v.0761h-4.5449v-.0761q.1136-.3971.2178-.9844t.17-1.458q.0658-.87.1137-2.0645.0469-1.1923.0474-2.8213V222.3291q0-1.6085-.0474-2.8115t-.1137-2.0742q-.0667-.87-.17-1.4668a9.9822,9.9822,0,0,0-.2178-.9942v-.0762l.7954.0762q.36.0381.8047.0469t.9184.01a14.8963,14.8963,0,0,0,1.9976-.18,23.3986,23.3986,0,0,1,3.21-.1807,11.0133,11.0133,0,0,1,3.3613.4922,7.8956,7.8956,0,0,1,2.68,1.44,6.5649,6.5649,0,0,1,1.77,2.32,7.3426,7.3426,0,0,1,.6343,3.1142,8.746,8.746,0,0,1-.35,2.5283,7.8139,7.8139,0,0,1-.9849,2.1114,7.67,7.67,0,0,1-1.5244,1.6758,8.8033,8.8033,0,0,1-1.9883,1.2216l6.6465,9.336q.4922.7.9185,1.2119a10.4708,10.4708,0,0,0,.8144.8808,5.3679,5.3679,0,0,0,.7481.6055,3.3241,3.3241,0,0,0,.7382.3692v.0761h-5.4726a3.3578,3.3578,0,0,0-.3692-.956,10.4381,10.4381,0,0,0-.729-1.1836l-6.7036-9.4492q-.4357.0379-.8711.0654-.4357.0293-.89.0293-.53,0-1.07-.0381A10.8305,10.8305,0,0,1,113,230.3965Zm0-5.7383a8.0026,8.0026,0,0,0,1.0415.1612q.53.0483,1.0225.0478a7.5748,7.5748,0,0,0,2.5942-.4258,5.0994,5.0994,0,0,0,1.998-1.2978,5.9765,5.9765,0,0,0,1.2784-2.168,9.1993,9.1993,0,0,0,.4546-3.039,9.5843,9.5843,0,0,0-.3223-2.5762,5.5321,5.5321,0,0,0-.9561-1.96,4.2979,4.2979,0,0,0-1.6-1.249,5.3352,5.3352,0,0,0-2.2534-.4453,12.883,12.883,0,0,0-2.0835.1328,6.5476,6.5476,0,0,0-1.1738.2842Z" transform="translate(-28.8 -68.2316)"/><path class="cls-3" d="M144.3027,214.4521a16.1329,16.1329,0,0,1,5.8418,1.0313,13.7925,13.7925,0,0,1,4.63,2.8975,13.1883,13.1883,0,0,1,3.0488,4.4785,14.7694,14.7694,0,0,1,1.0987,5.7763,15.1685,15.1685,0,0,1-.417,3.5411,14.4232,14.4232,0,0,1-1.2212,3.2949,13.93,13.93,0,0,1-1.979,2.8691,12.7,12.7,0,0,1-2.68,2.2725,13.1043,13.1043,0,0,1-3.3232,1.4951,13.6944,13.6944,0,0,1-3.92.54,16.4005,16.4005,0,0,1-5.8418-1.0127,13.6105,13.6105,0,0,1-4.63-2.8691,13.09,13.09,0,0,1-3.0489-4.46,14.7372,14.7372,0,0,1-1.0986-5.7851,15.1735,15.1735,0,0,1,.4165-3.541,14.7922,14.7922,0,0,1,1.2217-3.3135,13.8691,13.8691,0,0,1,1.9692-2.8877,12.6781,12.6781,0,0,1,2.67-2.2822,12.9257,12.9257,0,0,1,3.3325-1.5059A13.83,13.83,0,0,1,144.3027,214.4521Zm1.0791,26.4922a9.5417,9.5417,0,0,0,3.8443-.7578,8.3939,8.3939,0,0,0,3.0014-2.1963,10.2447,10.2447,0,0,0,1.96-3.5127,14.674,14.674,0,0,0,.7007-4.706,20.6835,20.6835,0,0,0-.6724-5.4063,13.0843,13.0843,0,0,0-1.9975-4.3173,9.3982,9.3982,0,0,0-3.3047-2.8594,9.83,9.83,0,0,0-4.6109-1.0323,9.6374,9.6374,0,0,0-3.8442.7481,8.393,8.393,0,0,0-3.0015,2.168,10.04,10.04,0,0,0-1.96,3.4843,14.57,14.57,0,0,0-.7007,4.6963,21.1078,21.1078,0,0,0,.6626,5.4063,13.041,13.041,0,0,0,1.9883,4.3467,9.5358,9.5358,0,0,0,3.3139,2.8877A9.7511,9.7511,0,0,0,145.3818,240.9443Z" transform="translate(-28.8 -68.2316)"/><path class="cls-3" d="M163.1826,214.9062q.3787.0381.7954.0762.36.0381.8047.0469t.9185.01a14.8951,14.8951,0,0,0,1.9975-.18,23.3986,23.3986,0,0,1,3.21-.1807,10.2842,10.2842,0,0,1,3.3613.53,7.6957,7.6957,0,0,1,2.68,1.5527,7.1094,7.1094,0,0,1,1.77,2.49,8.3521,8.3521,0,0,1,.6338,3.3427,8.955,8.955,0,0,1-1.0029,4.3555,8.3654,8.3654,0,0,1-2.6895,2.9727,10.1757,10.1757,0,0,1-3.8823,1.5439,13.8477,13.8477,0,0,1-4.6016.0469v3.1435q0,1.61.0474,2.8125t.1138,2.0733q.0658.8715.17,1.458a9.8769,9.8769,0,0,0,.2177.9844v.0761h-4.5449v-.0761q.1135-.3971.2178-.9844t.18-1.458q.0755-.87.1137-2.0733t.0381-2.8125V222.3291q0-1.6085-.0381-2.8115t-.1137-2.083q-.0754-.88-.18-1.4678t-.2178-.9844Zm3.9956,15.1309a9.5406,9.5406,0,0,0,3.3989.0654,5.7094,5.7094,0,0,0,2.6514-1.1738,5.8682,5.8682,0,0,0,1.7232-2.4336,10.083,10.083,0,0,0,.6157-3.749,11.2648,11.2648,0,0,0-.3223-2.793,6.2878,6.2878,0,0,0-.956-2.14,4.3379,4.3379,0,0,0-1.6-1.3643,4.9889,4.9889,0,0,0-2.2535-.4824,13.3263,13.3263,0,0,0-1.42.0664c-.4043.0439-.7451.0918-1.0224.1416a5.7477,5.7477,0,0,0-.8145.209Z" transform="translate(-28.8 -68.2316)"/><path class="cls-3" d="M187.7529,214.8877q2.3394-.019,4.29-.0479t3.332-.0849a15.2566,15.2566,0,0,0,1.875-.1514l-.9277,2.5186a13.6312,13.6312,0,0,0-1.458-.3028q-.7207-.1141-1.752-.2177-1.0328-.1041-2.376-.1045-.4555,0-1.0888.0283-.6359.0278-1.2217.0664-.6827.0381-1.3828.0752v10.34q1.9512-.019,3.5224-.1132t2.67-.1895q1.2876-.1143,2.2724-.2656l-.5869,2.7461q-1.3066-.17-2.67-.3223-1.1748-.1318-2.5567-.2363t-2.6513-.1045v11.874q2.2338,0,4.1093-.1894t3.2764-.4356q1.6275-.2651,2.9727-.625l-.5489,3.0674c-.1513-.0127-.3789-.0254-.6816-.0381s-.6406-.0254-1.0137-.0371-.7636-.0225-1.1738-.0293-.7988-.0127-1.1641-.0186c-.3672-.0068-.6914-.0127-.9755-.0185s-.4893-.01-.6153-.01h-8.1806v-.0761q.1127-.3971.2177-.9844t.18-1.458q.0747-.87.1133-2.0733t.0381-2.8125V222.3291q0-1.6085-.0381-2.8115t-.1133-2.083q-.0762-.88-.18-1.4678-.1055-.5874-.2177-.9844v-.0762Q185.4151,214.9062,187.7529,214.8877Z" transform="translate(-28.8 -68.2316)"/><path class="cls-3" d="M206.0557,234.6572q0,1.61.0478,2.8125t.1133,2.0733q.0659.8715.1709,1.458a9.5993,9.5993,0,0,0,.2178.9844v.0761h-4.545v-.0761q.1128-.3971.2178-.9844t.17-1.458q.066-.87.1143-2.0645.0469-1.1923.0469-2.8213V222.3291q0-1.6085-.0469-2.8115t-.1143-2.0742q-.0659-.87-.17-1.4668t-.2178-.9942v-.0762l.795.0762c.24.0254.5078.041.8047.0469s.6025.01.9189.01a14.8847,14.8847,0,0,0,1.9971-.18,23.4011,23.4011,0,0,1,3.21-.1807,11.0139,11.0139,0,0,1,3.3614.4922,7.89,7.89,0,0,1,2.68,1.44,6.5536,6.5536,0,0,1,1.7706,2.32,7.3426,7.3426,0,0,1,.6347,3.1142,8.7458,8.7458,0,0,1-.3506,2.5283,7.8006,7.8006,0,0,1-.9843,2.1114,7.6981,7.6981,0,0,1-1.5245,1.6758,8.8115,8.8115,0,0,1-1.9882,1.2216l6.6464,9.336q.4923.7.918,1.2119a10.4876,10.4876,0,0,0,.8145.8808,5.3733,5.3733,0,0,0,.748.6055,3.3464,3.3464,0,0,0,.7383.3692v.0761h-5.4727a3.3267,3.3267,0,0,0-.3691-.956,10.3754,10.3754,0,0,0-.7285-1.1836l-6.7041-9.4492c-.29.0253-.5811.0468-.8711.0654s-.5869.0293-.89.0293q-.53,0-1.07-.0381a10.85,10.85,0,0,1-1.0888-.1328Zm0-5.7383a8.0075,8.0075,0,0,0,1.042.1612q.53.0483,1.0224.0478a7.5725,7.5725,0,0,0,2.5938-.4258,5.0922,5.0922,0,0,0,1.998-1.2978,5.9623,5.9623,0,0,0,1.2783-2.168,9.196,9.196,0,0,0,.4551-3.039,9.58,9.58,0,0,0-.3223-2.5762,5.5336,5.5336,0,0,0-.956-1.96,4.3036,4.3036,0,0,0-1.6006-1.249,5.3329,5.3329,0,0,0-2.2529-.4453,12.89,12.89,0,0,0-2.084.1328,6.5588,6.5588,0,0,0-1.1738.2842Z" transform="translate(-28.8 -68.2316)"/><path class="cls-3" d="M230.958,216.5723a36.9215,36.9215,0,0,0-4.0342.1992q-1.7988.1992-3.1054.4258-1.5147.2841-2.708.625l.55-3.0674c.1513.0127.3779.0254.6816.0381s.6406.0254,1.0127.0371.7637.0224,1.1738.0293.7988.0127,1.1651.0185.6914.0127.9755.0186.4883.01.6153.01h10.8125c.126,0,.332-.0029.6152-.01s.6094-.0117.9756-.0186.7539-.0127,1.165-.0185.8008-.0166,1.1739-.0293.71-.0244,1.0127-.0371.53-.0254.6816-.0381l.55,3.0674q-1.2129-.34-2.7275-.625-1.3067-.2271-3.1055-.4258a36.9141,36.9141,0,0,0-4.0332-.1992v18.0849q0,1.61.0469,2.8125t.1142,2.0733q.066.8715.17,1.458t.2177.9844v.0761h-4.5254v-.0761a8.8654,8.8654,0,0,0,.208-.9844q.0952-.5859.1709-1.458.0747-.87.1133-2.0733t.0381-2.8125Z" transform="translate(-28.8 -68.2316)"/><path class="cls-3" d="M258.0371,229.0332v5.624q0,1.61.0381,2.8125t.1133,2.0733q.0762.8715.1806,1.458a9.5993,9.5993,0,0,0,.2178.9844v.0761H254.042v-.0761q.1128-.3971.2178-.9844t.17-1.458q.0659-.87.1133-2.0733t.0478-2.8125v-5.2451l-8.4648-11.5137q-.4351-.5874-.8614-1.0791t-.8046-.8623c-.253-.2461-.48-.4511-.6817-.6152s-.36-.2842-.4736-.3594v-.0762h5.7373a4.8015,4.8015,0,0,0,.3691,1.43,10.4562,10.4562,0,0,0,1.336,2.3389l6.2109,8.5029,6.0781-8.8818q.3223-.4731.6446-.9658.3207-.4921.5869-.9463a7.5641,7.5641,0,0,0,.4258-.834,1.7023,1.7023,0,0,0,.1611-.6436h3.6934v.0762q-.4176.3589-1.1182,1.0694a14.3929,14.3929,0,0,0-1.5147,1.8847Z" transform="translate(-28.8 -68.2316)"/><path class="cls-3" d="M61.4834,249.7393q.3786.038.7954.0761.36.0381.8047.0469t.9185.01a14.8965,14.8965,0,0,0,1.9975-.18,23.3986,23.3986,0,0,1,3.21-.1807,10.2842,10.2842,0,0,1,3.3613.53,7.6935,7.6935,0,0,1,2.68,1.5527,7.0967,7.0967,0,0,1,1.77,2.49,8.3538,8.3538,0,0,1,.6343,3.3427,8.9551,8.9551,0,0,1-1.0034,4.3555,8.36,8.36,0,0,1-2.689,2.9727A10.1757,10.1757,0,0,1,70.0806,266.3a13.8477,13.8477,0,0,1-4.6016.0469V269.49q0,1.61.0474,2.8125t.1137,2.0733q.066.8715.17,1.458a9.8739,9.8739,0,0,0,.2178.9844v.0761H61.4834v-.0761q.1135-.3971.2178-.9844t.18-1.458q.0755-.87.1137-2.0733t.0381-2.8125V257.1621q0-1.6084-.0381-2.8115t-.1137-2.083q-.0755-.88-.18-1.4678t-.2178-.9844ZM65.479,264.87a9.5406,9.5406,0,0,0,3.3989.0654,5.71,5.71,0,0,0,2.6514-1.1738,5.8671,5.8671,0,0,0,1.7231-2.4336,10.091,10.091,0,0,0,.6158-3.749,11.27,11.27,0,0,0-.3223-2.793,6.286,6.286,0,0,0-.9561-2.14,4.3363,4.3363,0,0,0-1.6-1.3643,4.9885,4.9885,0,0,0-2.2534-.4824,13.3263,13.3263,0,0,0-1.42.0664q-.6064.066-1.0224.1416a5.7441,5.7441,0,0,0-.8145.209Z" transform="translate(-28.8 -68.2316)"/><path class="cls-3" d="M100.7773,257.1621q0-1.6084-.038-2.8115t-.1138-2.083q-.0755-.88-.17-1.4678a8.664,8.664,0,0,0-.208-.9844v-.0761h3.3706v.0761a9.9881,9.9881,0,0,0-.2178.9844q-.1039.5874-.17,1.4678t-.1138,2.083q-.0476,1.2026-.0473,2.8115v10.2266a12.2845,12.2845,0,0,1-.7764,4.62,8.2305,8.2305,0,0,1-2.1587,3.1338,8.4848,8.4848,0,0,1-3.314,1.78,15.1688,15.1688,0,0,1-4.2226.5585,16.4522,16.4522,0,0,1-4.27-.53,9.2075,9.2075,0,0,1-3.4463-1.7139,8.0251,8.0251,0,0,1-2.3008-3.0674,11.3246,11.3246,0,0,1-.8335-4.5918v-10.416q0-1.6084-.0376-2.8115t-.1138-2.083q-.0761-.88-.18-1.4678t-.2178-.9844v-.0761h4.5444v.0761a10.0171,10.0171,0,0,0-.2178.9844q-.1039.5874-.18,1.4678t-.1138,2.083q-.0381,1.2026-.0376,2.8115v10.624a8.9519,8.9519,0,0,0,.6719,3.7207,6.1375,6.1375,0,0,0,1.771,2.3291,6.47,6.47,0,0,0,2.4995,1.2032,12.1655,12.1655,0,0,0,5.7187,0,6.3946,6.3946,0,0,0,2.49-1.2032,6.1846,6.1846,0,0,0,1.7612-2.3291,8.9611,8.9611,0,0,0,.6723-3.7207Z" transform="translate(-28.8 -68.2316)"/><path class="cls-3" d="M112.8779,269.49q0,1.61.0474,2.8125t.1138,2.0733q.0658.8715.17,1.458a9.8769,9.8769,0,0,0,.2177.9844v.0761h-4.5449v-.0761q.1135-.3971.2178-.9844t.17-1.458q.066-.87.1138-2.0645.0468-1.1924.0473-2.8213V257.1621q0-1.6084-.0473-2.8115t-.1138-2.0742q-.0666-.87-.17-1.4668a9.9539,9.9539,0,0,0-.2178-.9942v-.0761l.7954.0761q.36.0381.8047.0469t.9185.01a14.8951,14.8951,0,0,0,1.9975-.18,23.3986,23.3986,0,0,1,3.21-.1807,11.0133,11.0133,0,0,1,3.3613.4922,7.8956,7.8956,0,0,1,2.68,1.44,6.5658,6.5658,0,0,1,1.77,2.32,7.3411,7.3411,0,0,1,.6343,3.1142,8.746,8.746,0,0,1-.35,2.5283,7.8139,7.8139,0,0,1-.9849,2.1114,7.67,7.67,0,0,1-1.5244,1.6758,8.7989,8.7989,0,0,1-1.9883,1.2216l6.6465,9.336q.4923.7.9185,1.2119a10.49,10.49,0,0,0,.8144.8809,5.38,5.38,0,0,0,.7481.6054,3.3227,3.3227,0,0,0,.7383.3692v.0761H124.6a3.3569,3.3569,0,0,0-.3691-.956,10.4525,10.4525,0,0,0-.729-1.1836l-6.7036-9.4492q-.4359.0381-.8711.0654-.4359.0292-.89.0293-.53,0-1.07-.0381a10.8305,10.8305,0,0,1-1.0889-.1328Zm0-5.7382a8.0221,8.0221,0,0,0,1.0415.1611q.53.0483,1.0225.0478a7.5768,7.5768,0,0,0,2.5942-.4257,5.1011,5.1011,0,0,0,1.9981-1.2979,5.9763,5.9763,0,0,0,1.2783-2.168,9.1993,9.1993,0,0,0,.4546-3.039,9.58,9.58,0,0,0-.3223-2.5762,5.5336,5.5336,0,0,0-.956-1.96,4.3,4.3,0,0,0-1.6-1.249,5.3355,5.3355,0,0,0-2.2534-.4453,12.8937,12.8937,0,0,0-2.0835.1328,6.5513,6.5513,0,0,0-1.1739.2842Z" transform="translate(-28.8 -68.2316)"/><path class="cls-3" d="M153.7627,253.9053l-.1709.0761a11.2041,11.2041,0,0,0-3.5508-2.1777,13.1516,13.1516,0,0,0-8.9282-.0664,9.5625,9.5625,0,0,0-3.418,2.168A9.802,9.802,0,0,0,135.47,257.39a12.99,12.99,0,0,0-.7954,4.6963,18.628,18.628,0,0,0,.7573,5.4063,12.526,12.526,0,0,0,2.2535,4.3467,10.48,10.48,0,0,0,3.74,2.8877,12.234,12.234,0,0,0,5.2358,1.0507,10.4631,10.4631,0,0,0,2.1592-.2275,10.1877,10.1877,0,0,0,2.0733-.6719,10.6255,10.6255,0,0,0,1.875-1.0791,9.6647,9.6647,0,0,0,1.6-1.4492l.2089.1328-1.5156,3.8633a16.3452,16.3452,0,0,1-3.1338.8428,20.4774,20.4774,0,0,1-3.456.2929,19.3848,19.3848,0,0,1-6.41-1.0126,14.7517,14.7517,0,0,1-4.999-2.8692,12.9536,12.9536,0,0,1-3.2573-4.46,14.01,14.01,0,0,1-1.1646-5.7851,13.6933,13.6933,0,0,1,.4639-3.541,14.0382,14.0382,0,0,1,1.354-3.3135,13.5806,13.5806,0,0,1,2.1968-2.8877,14.0648,14.0648,0,0,1,2.9824-2.2822,15.2868,15.2868,0,0,1,3.6929-1.5059,16.8549,16.8549,0,0,1,4.3647-.539,19.9882,19.9882,0,0,1,6.7793,1.1171Z" transform="translate(-28.8 -68.2316)"/><path class="cls-3" d="M176.8271,263.9043q-.7572-.019-1.8935-.0283t-2.4717-.0293q-1.3344-.0176-2.7832-.0283-1.4487-.0088-2.831-.0186t-2.6329.01q-1.2495.019-2.1777.0566v5.624q0,1.61.0479,2.8125t.1132,2.0733q.066.8715.1709,1.458a9.8739,9.8739,0,0,0,.2178.9844v.0761H158.042v-.0761a9.8739,9.8739,0,0,0,.2178-.9844q.1039-.5859.18-1.458.076-.87.1142-2.0733.0366-1.2026.0371-2.8125V257.1621q0-1.6084-.0371-2.8115-.04-1.2027-.1142-2.083-.0762-.88-.18-1.4678a9.8739,9.8739,0,0,0-.2178-.9844v-.0761h4.5449v.0761a9.8739,9.8739,0,0,0-.2178.9844q-.1039.5874-.1709,1.4678t-.1132,2.083q-.047,1.2026-.0479,2.8115v4.8486q.9858.0381,2.2354.0469,1.2495.01,2.6132,0,1.3623-.0087,2.7735-.0283t2.7275-.0479q1.3155-.0278,2.4619-.0654t1.9785-.0762v-4.6777q0-1.6084-.0468-2.8115-.0485-1.2027-.1143-2.083t-.17-1.4678q-.1055-.5874-.2178-.9844v-.0761h4.5449v.0761a9.6021,9.6021,0,0,0-.2177.9844q-.1055.5874-.1807,1.4678t-.1133,2.083q-.0381,1.2026-.0381,2.8115V269.49q0,1.61.0381,2.8125t.1133,2.0733q.0762.8715.1807,1.458a9.6021,9.6021,0,0,0,.2177.9844v.0761h-4.5449v-.0761q.1128-.3971.2178-.9844t.17-1.458q.066-.87.1143-2.0733.0468-1.2026.0468-2.8125Z" transform="translate(-28.8 -68.2316)"/><path class="cls-3" d="M205.0244,276.8945v-.0761a1.0948,1.0948,0,0,0,.0567-.2832c.0127-.127.0195-.24.0195-.3409a5.9706,5.9706,0,0,0-.1611-1.2978,10.7376,10.7376,0,0,0-.6153-1.7705l-2.292-5.15q-1.06-.0381-2.8213-.0381h-6.6943q-1.3916,0-2.5088.0381l-2.1777,4.999q-.2842.7-.6065,1.5342a4.639,4.639,0,0,0-.3213,1.6855,1.8038,1.8038,0,0,0,.0372.4063.7325.7325,0,0,0,.0761.2178v.0761h-3.8633v-.0761a6.7543,6.7543,0,0,0,.8526-1.2774q.5112-.9185,1.1172-2.3017l10.8506-24.0684h1.5146l10.2832,23.1406q.359.8145.7481,1.5811t.7285,1.373q.3413.6064.6064,1.0225a6.2924,6.2924,0,0,0,.3594.53v.0761Zm-12.2705-10.5859q1.0973,0,2.2529-.0088t2.2627-.0195q1.109-.0088,2.1309-.0186t1.8555-.0283l-5.3213-12.0254-5.2266,12.1006Z" transform="translate(-28.8 -68.2316)"/><path class="cls-3" d="M223.8662,254.0566h-.417a5.3668,5.3668,0,0,0-.4824-.9843,4.5746,4.5746,0,0,0-.8711-1.0323,4.5154,4.5154,0,0,0-3.1152-1.1269,4.456,4.456,0,0,0-1.6475.2842,3.2717,3.2717,0,0,0-1.2021.7959,3.3532,3.3532,0,0,0-.73,1.2119,4.6566,4.6566,0,0,0-.2461,1.5527,4.8816,4.8816,0,0,0,.7666,2.6035,15.0667,15.0667,0,0,0,1.9219,2.4522q1.1558,1.2129,2.5,2.4238a31.51,31.51,0,0,1,2.5,2.5186,14.4836,14.4836,0,0,1,1.9218,2.7363,6.4069,6.4069,0,0,1,.7666,3.0771,7.5636,7.5636,0,0,1-.4258,2.4717,6.3648,6.3648,0,0,1-1.3164,2.2246,6.6,6.6,0,0,1-2.291,1.6006,8.2478,8.2478,0,0,1-3.333.6152,10.3256,10.3256,0,0,1-2.0547-.1982,13.1645,13.1645,0,0,1-1.7988-.4932,11.7164,11.7164,0,0,1-1.4766-.6338,10.8278,10.8278,0,0,1-1.07-.625l.4356-4.1855h.4736a6.0052,6.0052,0,0,0,.6816,1.6953,5.86,5.86,0,0,0,1.1641,1.42,5.5959,5.5959,0,0,0,1.5811.9854,5.0462,5.0462,0,0,0,1.9511.3691,4.8032,4.8032,0,0,0,1.7325-.2939,3.9116,3.9116,0,0,0,1.3164-.8145,3.5133,3.5133,0,0,0,.8427-1.24,4.129,4.129,0,0,0,.293-1.5713,5.528,5.528,0,0,0-.4355-2.206,8.6767,8.6767,0,0,0-1.1456-1.9229,16.0763,16.0763,0,0,0-1.6093-1.7607q-.8994-.8526-1.8467-1.7139t-1.8457-1.77a14.1045,14.1045,0,0,1-1.61-1.9414,9.9667,9.9667,0,0,1-1.1455-2.2149,7.4982,7.4982,0,0,1-.4355-2.6045,6.1447,6.1447,0,0,1,.5781-2.6982,6.4643,6.4643,0,0,1,1.5332-2.0547,6.8292,6.8292,0,0,1,2.169-1.3066,7.062,7.062,0,0,1,2.499-.4541,9.3738,9.3738,0,0,1,1.7422.1513,11.6421,11.6421,0,0,1,1.43.3594q.6342.21,1.1084.417t.7763.3408Z" transform="translate(-28.8 -68.2316)"/><path class="cls-3" d="M230.3613,276.8184a8.6413,8.6413,0,0,0,.209-.9844q.0938-.5859.17-1.458.0762-.87.1143-2.0733.0366-1.2026.0371-2.8125V257.1621q0-1.6084-.0371-2.8115t-.1143-2.083q-.076-.88-.17-1.4678a8.6413,8.6413,0,0,0-.209-.9844v-.0761h4.5264v.0761a9.8739,9.8739,0,0,0-.2178.9844q-.104.5874-.1709,1.4678t-.1133,2.083q-.0468,1.2026-.0468,2.8115V269.49q0,1.61.0468,2.8125t.1133,2.0733q.0674.8715.1709,1.458a9.8739,9.8739,0,0,0,.2178.9844v.0761h-4.5264Z" transform="translate(-28.8 -68.2316)"/><path class="cls-3" d="M241.5342,249.7393l19.5049,20.7548v-13.332q0-1.6084-.0381-2.8115t-.1133-2.083q-.0762-.88-.1807-1.4678a9.8769,9.8769,0,0,0-.2177-.9844v-.0761H263.86v.0761a8.6618,8.6618,0,0,0-.2081.9844q-.0951.5874-.1709,1.4678t-.1132,2.083q-.0381,1.2026-.0381,2.8115v20.1113h-.6631l-19.5049-20.7363V269.49q0,1.61.0381,2.8125t.1143,2.0733q.0747.8715.17,1.458a8.8884,8.8884,0,0,0,.208.9844v.0761h-3.37v-.0761q.1128-.3971.2177-.9844t.18-1.458q.0762-.87.1133-2.0733t.0381-2.8125V257.1621q0-1.6084-.0381-2.8115t-.1133-2.083q-.0762-.88-.18-1.4678t-.2177-.9844v-.0761Z" transform="translate(-28.8 -68.2316)"/><path class="cls-3" d="M293.0234,273.7129a2.1557,2.1557,0,0,1-.0478.4355.6724.6724,0,0,1-.2178.3789,14.6,14.6,0,0,1-1.8457,1.1836,14.2813,14.2813,0,0,1-2.1494.9375,15.2175,15.2175,0,0,1-2.49.6153,17.8111,17.8111,0,0,1-2.8692.2177,18.62,18.62,0,0,1-6.2871-1.0126A14.2418,14.2418,0,0,1,272.24,273.6a12.7661,12.7661,0,0,1-3.1533-4.46,14.5177,14.5177,0,0,1-1.1172-5.7851,13.6933,13.6933,0,0,1,.4639-3.541,14.0186,14.0186,0,0,1,1.3545-3.3135,13.5617,13.5617,0,0,1,2.1963-2.8877,14.0648,14.0648,0,0,1,2.9824-2.2822,15.3,15.3,0,0,1,3.6924-1.5059,16.8616,16.8616,0,0,1,4.3652-.539q.91,0,1.8555.0849.9477.085,1.875.2461t1.79.3877q.8613.2285,1.6377.5117l1.2881,3.503-.1523.0761a10.4875,10.4875,0,0,0-1.7041-1.23,13.5744,13.5744,0,0,0-2.0635-.9854,14.3331,14.3331,0,0,0-2.3008-.6533,12.6288,12.6288,0,0,0-2.4336-.2363,12.3308,12.3308,0,0,0-4.375.748,9.5712,9.5712,0,0,0-3.418,2.168,9.8078,9.8078,0,0,0-2.2246,3.4843,12.9894,12.9894,0,0,0-.7959,4.6963,18.3388,18.3388,0,0,0,.7578,5.378,12.3425,12.3425,0,0,0,2.2539,4.2988,10.3724,10.3724,0,0,0,3.7393,2.85,12.4134,12.4134,0,0,0,5.2363,1.0322,12.1545,12.1545,0,0,0,2.3672-.208,8.7889,8.7889,0,0,0,1.7608-.5205,3.5333,3.5333,0,0,0,1.0888-.6816,1.0255,1.0255,0,0,0,.3692-.6729v-.7383q0-1.3255-.0371-2.291t-.1143-1.6767c-.05-.4727-.1074-.88-.17-1.2207a8.9391,8.9391,0,0,0-.2276-.9473v-.0752h4.545v.0752q-.1143.3984-.2178.9375t-.18,1.2783q-.0762.7383-.1143,1.7324t-.0371,2.3008Z" transform="translate(-28.8 -68.2316)"/></svg>