<svg id="Layer_1" data-name="Layer 1" xmlns="http://www.w3.org/2000/svg" viewBox="0 0 500 500"><defs><style>.cls-1,.cls-2,.cls-3{fill:#bd8334;}.cls-1{fill-rule:evenodd;}.cls-3{font-size:38.78px;font-family:Marcellus-Regular, Marcellus;}.cls-4{letter-spacing:-0.03em;}.cls-5{fill:none;stroke:#bd8334;stroke-miterlimit:10;stroke-width:10px;}</style></defs><g id="_id208_sh05xewcxa" data-name="  id208 sh05xewcxa"><path class="cls-1" d="M160.7,231.76H116.59l132.17-85.51,132.17,85.51H344.1a3.15,3.15,0,1,0,0,6.3h47.5a3.15,3.15,0,0,0,1.71-5.8L250.47,139.85a3.14,3.14,0,0,0-3.43,0L104.2,232.26a3.15,3.15,0,0,0,1.71,5.8H160.7a3.15,3.15,0,1,0,0-6.3Z"/></g><g id="_id209_sh05xewcxa" data-name="  id209 sh05xewcxa"><path class="cls-1" d="M314.81,183.17V154.63h10.75v37.63a3.16,3.16,0,1,0,6.31,0V151.47a3.16,3.16,0,0,0-3.16-3.15h-17a3.15,3.15,0,0,0-3.16,3.15v31.7a3.16,3.16,0,1,0,6.31,0Z"/></g><g id="_id138_sh05xewcxa" data-name="  id138 sh05xewcxa"><path class="cls-2" d="M193.56,232.56h-8.3a1.48,1.48,0,0,0,0,3h8.3A1.48,1.48,0,0,0,193.56,232.56Z"/></g><g id="_id139_sh05xewcxa" data-name="  id139 sh05xewcxa"><path class="cls-2" d="M201.83,205.48l-7.42-4.12c-1.67-.93-3.16,1.62-1.49,2.55l7.41,4.12C202,209,203.49,206.4,201.83,205.48Z"/></g><g id="_id140_sh05xewcxa" data-name="  id140 sh05xewcxa"><path class="cls-2" d="M222,186l-4-7.16a1.48,1.48,0,0,0-2.55,1.5l4,7.15A1.48,1.48,0,0,0,222,186Z"/></g><g id="_id141_sh05xewcxa" data-name="  id141 sh05xewcxa"><path class="cls-2" d="M249.55,179.55v-8.32a1.48,1.48,0,0,0-3,0v8.32A1.48,1.48,0,0,0,249.55,179.55Z"/></g><g id="_id142_sh05xewcxa" data-name="  id142 sh05xewcxa"><path class="cls-2" d="M276.77,187.76l4-7.38c.91-1.68-1.64-3.17-2.55-1.5l-4,7.39C273.31,188,275.86,189.44,276.77,187.76Z"/></g><g id="_id143_sh05xewcxa" data-name="  id143 sh05xewcxa"><path class="cls-2" d="M295.91,208.27l7.32-4.36a1.48,1.48,0,0,0-1.5-2.55l-7.31,4.35A1.48,1.48,0,0,0,295.91,208.27Z"/></g><g id="_id144_sh05xewcxa" data-name="  id144 sh05xewcxa"><path class="cls-2" d="M302.44,235.52h8.45a1.48,1.48,0,0,0,0-3h-8.45A1.48,1.48,0,0,0,302.44,235.52Z"/></g><g id="_id147_sh05xewcxa" data-name="  id147 sh05xewcxa"><path class="cls-2" d="M248.41,230.27h-.2a3.7,3.7,0,1,0,0,7.39h.2a3.7,3.7,0,1,0,0-7.39Z"/></g><g id="_id148_sh05xewcxa" data-name="  id148 sh05xewcxa"><path class="cls-2" d="M248.92,234.18V201a.74.74,0,0,0-1.48,0v33.18A.74.74,0,0,0,248.92,234.18Z"/></g><g id="_id149_sh05xewcxa" data-name="  id149 sh05xewcxa"><path class="cls-2" d="M248.58,233.59,226.7,195.73l-1.75-3a.74.74,0,0,0-1.28.74l21.88,37.87,1.76,3a.74.74,0,0,0,1.27-.75Z"/></g><text class="cls-3" transform="translate(161.18 275.6)">PURETIME</text><text class="cls-3" transform="translate(160.19 312.97)">PROPE<tspan class="cls-4" x="112.92" y="0">R</tspan><tspan x="134.68" y="0">TY</tspan></text><text class="cls-3" transform="translate(132.53 347.81)">PURCHASING</text><circle class="cls-5" cx="249.55" cy="246.72" r="185.04"/></svg>